<?xml version="1.0" encoding="utf-8"?>
<!-- Generator: Adobe Illustrator 23.0.1, SVG Export Plug-In . SVG Version: 6.00 Build 0)  -->
<svg version="1.1" id="_x30_" xmlns="http://www.w3.org/2000/svg" xmlns:xlink="http://www.w3.org/1999/xlink" x="0px" y="0px"
	 viewBox="0 0 1087.2 1087.2" style="enable-background:new 0 0 1087.2 1087.2;" xml:space="preserve">
<style type="text/css">
	.st0{fill:#55B0CD;}
	.st1{fill:#FFFFFF;}
</style>
<path class="st0" d="M0,543.6C0,243.38,243.38,0,543.6,0s543.6,243.38,543.6,543.6s-243.38,543.6-543.6,543.6S0,843.82,0,543.6
	L0,543.6z"/>
<g id="SPLINE_9_">
	<path class="st1" d="M218.48,665.17l-1.51-7.46l-1.95-6.81l-5.23-12.2l-3.26-6.09l-3.66-6.76l-3.99-7.82l-4.22-8.99l-4.32-10.01
		l-4.26-10.71l-7.85-22.3l-6.44-22.8l-4.84-24.04l-3.05-25.64l-0.72-12.98l-0.11-12.69l0.5-12.12l1.05-11.38l1.46-10.64l1.63-10.06
		l2.65-19.14l0.51-9.17l-0.3-8.63l-1.22-7.68l-2.2-6.35l-3.22-4.76l-4.25-3.06c-15.13-9.63-30.37-5.97-40.82,7.22
		c-17.58,22.18-19.55,48.35-17.4,74.78C107.85,532.92,150.37,612.23,218.48,665.17"/>
	<path class="st1" d="M258.37,500.17l2.04-7.33l1.35-6.95l0.88-13.24l-0.14-6.91l-0.19-7.68l-0.01-8.78l0.32-9.93l0.7-10.88
		l1.06-11.48l3.13-23.43l4.61-23.24l3.02-11.71l3.58-11.91l8.92-24.23l5.25-11.89l5.66-11.36l5.95-10.57l6.11-9.66l6.13-8.82
		l6.02-8.23l11.05-15.85l4.62-7.94l3.65-7.82l2.4-7.4l0.92-6.66l-0.71-5.7l-2.4-4.66c-9.11-15.45-24.34-19.11-39.65-12.1
		c-25.73,11.78-39.37,34.2-49.46,58.73C219.84,332.11,221.72,422.07,258.37,500.17"/>
	<path class="st1" d="M367.01,381.24l5.44-5.33l4.65-5.34l3.94-5.41l3.45-5.62l3.34-6.05l3.68-6.75l4.38-7.61l5.24-8.44l6.04-9.07
		l6.66-9.41l14.43-18.73l15.61-17.82l8.47-8.63l9.06-8.52l9.66-8.39l10.18-8.13l10.5-7.67l10.58-7l10.44-6.18l10.12-5.31l9.72-4.58
		l9.32-4.12l8.95-4l8.54-4.2l7.97-4.57l7.07-4.95l5.78-5.2l2.29-2.65l1.84-2.66l1.36-2.65l0.87-2.64l0.37-2.63l-0.12-2.61
		c-0.17-17.93-11.53-28.72-28.29-30.3c-28.18-2.67-51.2,9.94-72.19,26.13C417.67,216.43,374.31,295.28,367.01,381.24"/>
	<path class="st1" d="M525.91,336.41c49.31-70.79,126.28-117.4,211.86-128.29c26.28-3.53,52.52-2.93,75.59,13.47
		c13.72,9.75,18.17,24.78,9.35,40.39l-2.84,4.41l-4.58,3.47l-6.22,2.53l-7.61,1.62l-8.6,0.75l-9.18-0.03l-19.25-1.65l-10.13-1.1
		l-10.7-0.9l-11.42-0.46l-12.13,0.13l-12.67,0.77l-12.93,1.4L669,277.31l-12.1,2.85l-11.65,3.24l-22.43,7.63l-21.86,9l-10.47,4.82
		l-9.77,4.83l-8.76,4.69l-7.6,4.4l-6.56,4.01l-5.92,3.57l-11.91,5.86l-6.7,2.3L525.91,336.41"/>
	<path class="st1" d="M696.25,357.51c80.99-29.71,170.78-23.74,247.13,16.43c23.55,12.19,44.7,27.72,54.19,54.39
		c5.65,15.86,0.67,30.71-15.51,38.45l-4.85,1.99l-5.74,0.21l-6.55-1.5l-7.16-3.04l-7.47-4.32l-7.51-5.29l-14.82-12.39l-7.67-6.71
		l-8.25-6.87l-9.09-6.92l-10.01-6.85l-10.82-6.63l-11.39-6.27l-11.67-5.79l-11.69-5.21l-11.55-4.61l-11.4-4.03l-22.75-6.62
		l-23.07-5.16l-11.34-2.06l-10.77-1.64l-9.86-1.18l-8.74-0.76l-7.67-0.48l-6.9-0.46l-13.12-2.03l-6.81-1.95L696.25,357.51"/>
</g>
</svg>
