<svg width="1920" height="1080" viewBox="0 0 1920 1080" xmlns="http://www.w3.org/2000/svg"><rect width="1920" height="1080" fill="#55b0cd"/><path d="M 0,1080 C 0,1080 0,180 0,180 C 129.2076923076923,172.67179487179487 258.4153846153846,165.34358974358975 370,159 C 481.5846153846154,152.65641025641025 575.5461538461539,147.2974358974359 670,159 C 764.4538461538461,170.7025641025641 859.4000000000001,199.46666666666667 953,183 C 1046.6,166.53333333333333 1138.853846153846,104.83589743589744 1258,118 C 1377.146153846154,131.16410256410256 1523.1846153846154,219.1897435897436 1638,242 C 1752.8153846153846,264.8102564102564 1836.4076923076923,222.4051282051282 1920,180 C 1920,180 1920,1080 1920,1080 Z" fill="#3d1053" opacity="0.09999999999999999"/><path d="M 0,1080 C 0,1080 0,360 0,360 C 122.45641025641024,384.1692307692308 244.91282051282047,408.33846153846156 354,385 C 463.0871794871795,361.66153846153844 558.8051282051282,290.8153846153846 652,299 C 745.1948717948718,307.1846153846154 835.8666666666668,394.4000000000001 938,393 C 1040.1333333333332,391.5999999999999 1153.728205128205,301.58461538461535 1261,302 C 1368.271794871795,302.41538461538465 1469.2205128205128,393.26153846153846 1578,418 C 1686.7794871794872,442.73846153846154 1803.3897435897436,401.36923076923074 1920,360 C 1920,360 1920,1080 1920,1080 Z" fill="#3d1053" opacity="0.19999999999999998"/><path d="M 0,1080 C 0,1080 0,540 0,540 C 92.76666666666668,515.4102564102564 185.53333333333336,490.8205128205128 285,499 C 384.46666666666664,507.1794871794872 490.6333333333333,548.1282051282051 596,550 C 701.3666666666667,551.8717948717949 805.9333333333334,514.6666666666666 921,507 C 1036.0666666666666,499.33333333333337 1161.6333333333337,521.2051282051283 1286,536 C 1410.3666666666663,550.7948717948717 1533.5333333333333,558.5128205128206 1639,558 C 1744.4666666666667,557.4871794871794 1832.2333333333333,548.7435897435897 1920,540 C 1920,540 1920,1080 1920,1080 Z" fill="#3d1053" opacity="0.3"/><path d="M 0,1080 C 0,1080 0,720 0,720 C 114.70769230769233,720.8384615384616 229.41538461538465,721.6769230769231 349,711 C 468.58461538461535,700.3230769230769 593.0461538461537,678.1307692307691 679,666 C 764.9538461538463,653.8692307692309 812.4000000000002,651.8000000000001 913,678 C 1013.5999999999998,704.1999999999999 1167.353846153846,758.6692307692307 1282,773 C 1396.646153846154,787.3307692307693 1472.1846153846154,761.5230769230769 1572,746 C 1671.8153846153846,730.4769230769231 1795.9076923076923,725.2384615384615 1920,720 C 1920,720 1920,1080 1920,1080 Z" fill="#3d1053" opacity="0.39999999999999997"/><path d="M 0,1080 C 0,1080 0,900 0,900 C 93.77179487179487,900.0871794871795 187.54358974358973,900.1743589743589 308,896 C 428.45641025641027,891.8256410256411 575.597435897436,883.3897435897437 685,875 C 794.402564102564,866.6102564102563 866.0666666666666,858.2666666666665 958,851 C 1049.9333333333334,843.7333333333335 1162.1358974358975,837.5435897435898 1270,861 C 1377.8641025641025,884.4564102564102 1481.3897435897436,937.5589743589743 1589,949 C 1696.6102564102564,960.4410256410257 1808.3051282051283,930.2205128205128 1920,900 C 1920,900 1920,1080 1920,1080 Z" fill="#3d1053" opacity="0.49999999999999994"/></svg>